<?xml version="1.0" encoding="utf-8"?>
<!-- Generator: Adobe Illustrator 24.1.1, SVG Export Plug-In . SVG Version: 6.00 Build 0)  -->
<svg version="1.1" id="Слой_1" xmlns="http://www.w3.org/2000/svg" xmlns:xlink="http://www.w3.org/1999/xlink" x="0px" y="0px"
	 width="782px" height="500px" viewBox="0 0 782 500" style="enable-background:new 0 0 782 500;" xml:space="preserve">
<style type="text/css">
	.st0{clip-path:url(#SVGID_2_);}
	.st1{fill:#3E4253;}
	.st2{fill:#494D60;}
	.st3{fill:#53576C;}
</style>
<g>
	<defs>
		<rect id="SVGID_1_" x="-658" y="0" width="1440" height="500"/>
	</defs>
	<clipPath id="SVGID_2_">
		<use xlink:href="#SVGID_1_"  style="overflow:visible;"/>
	</clipPath>
	<g class="st0">
		<g>
			<path class="st1" d="M-91,869.3v-353c148-0.2,289.9-59.6,394.5-165.2C408.1,245.5,466.8,102.3,466.8-47h350.3
				c-0.2,242.9-96,475.9-266.2,647.7S149.8,869.1-91,869.3z"/>
		</g>
		<g>
			<path class="st2" d="M-8.9,886.9v-353c148-0.2,289.9-59.6,394.5-165.2S548.9,119.8,548.9-29.5h350.3
				c-0.2,242.9-96,475.9-266.2,647.7C462.8,790,231.9,886.6-8.9,886.9z"/>
		</g>
		<g>
			<path class="st3" d="M46.3,944.1v-379c159-0.2,311.4-64,423.8-177.4C582.5,274.3,645.6,120.6,645.6-39.7H1022
				c-0.2,260.8-103.1,510.9-286,695.4C553.1,840.1,305,943.8,46.3,944.1z"/>
		</g>
	</g>
</g>
</svg>
